# xmcd
#
# Track frame offsets:
#	150
#	17995
#	38790
#	57957
#	81155
#	101066
#	127677
#	148978
#	168906
#	186133
#	204960
#	225632
#	243523
#	257712
#	274065
#	290780
#	306711
#	324047
#	339798
#
# Disc length: 4698 seconds
#
# Revision: 0
# Processed by: cddbd v1.5.2PL0 Copyright (c) Steve Scherf et al.
# Submitted via: audiograbber 1.80
#
DISCID=11125813
DTITLE=Various Artist - Greatest Singles of all time [CD2)
DYEAR=1900
DGENRE=
TTITLE0=John Lennon - (Just Like) Starting Over
TTITLE1=Paul McCartney - No More Lonely Nights
TTITLE2=Dido - Here With Me
TTITLE3=Elton John - Sacrifice
TTITLE4=Enrique Iglesias - Hero
TTITLE5=Bon Jovi - Always
TTITLE6=R. Kelly - I Believe I Can Fly
TTITLE7=Whitney Houston - I Will Always Loe You
TTITLE8=Ashanti - Foolish
TTITLE9=Lionel Richie - Hello
TTITLE10=Boyzone - No Matter What
TTITLE11=Wet Wet Wet - Love Is All Around
TTITLE12=UB 40 featuring Chrissie Hynde - I Got You Babe
TTITLE13=Christina Aguilera - Genie In A Bottle
TTITLE14=Jennifer Lopez - Love Don't Cost A Thing
TTITLE15=Britney Spears - Oops!... I Did It Again
TTITLE16=Kylie Minogue - Can't Get You Out Of My Mind
TTITLE17=Bee Gees - Night Fever
TTITLE18=Abba - Waterloo
EXTD=
EXTT0=
EXTT1=
EXTT2=
EXTT3=
EXTT4=
EXTT5=
EXTT6=
EXTT7=
EXTT8=
EXTT9=
EXTT10=
EXTT11=
EXTT12=
EXTT13=
EXTT14=
EXTT15=
EXTT16=
EXTT17=
EXTT18=
PLAYORDER=
